<svg id="LOGO" xmlns="http://www.w3.org/2000/svg" viewBox="0 0 330 330"><defs><style>.cls-1{fill:#3f4444;}.cls-2{fill:#444;}.cls-3{fill:#ff671f;}</style></defs><title>logo-with-sloganArtboard 2</title><g id="COPYRIGHT"><path class="cls-1" d="M294,200.54l-1.74-3.74h-1.46v3.74h-1v-8.87h2.63a2.24,2.24,0,0,1,2.4,2.34v.42a2.32,2.32,0,0,1-1.6,2.28l1.81,3.83ZM294,194a1.32,1.32,0,0,0-1.46-1.43h-1.65v3.24h1.67a1.31,1.31,0,0,0,1.44-1.43Z"/><path class="cls-1" d="M292,205.09a9,9,0,1,1,9-9A9,9,0,0,1,292,205.09Zm0-16.59a7.61,7.61,0,1,0,7.61,7.6A7.61,7.61,0,0,0,292,188.5Z"/></g><g id="FUTURE_._DRIVEN" data-name="FUTURE . DRIVEN"><path id="E" class="cls-2" d="M139.73,324.37V304.8H150.6v2.63h-8.21v5.33H150v2.64h-7.61v6.34h8.21v2.63Z"/><path id="R" class="cls-2" d="M131.36,324.37l-3.74-8H125v8h-2.66V304.8h5.9a5.09,5.09,0,0,1,5.46,5.32V311a5.27,5.27,0,0,1-3.29,5.05l3.93,8.29Zm-.28-14.16a2.59,2.59,0,0,0-2.85-2.78H125v6.32h3.24a2.53,2.53,0,0,0,2.8-2.75Z"/><path id="U" class="cls-2" d="M78,324.62a5.29,5.29,0,0,1-5.68-5.44V304.8H75v14.38a3,3,0,0,0,6,0V304.8h2.67v14.41A5.25,5.25,0,0,1,78,324.62Z"/><path id="T" class="cls-2" d="M95.8,307.43v16.94H93.13V307.43H88.52V304.8h11.92v2.63Z"/><path id="U-2" data-name="U" class="cls-2" d="M111,324.62a5.29,5.29,0,0,1-5.68-5.44V304.8H108v14.38a3,3,0,0,0,6,0V304.8h2.67v14.41A5.25,5.25,0,0,1,111,324.62Z"/><path id="F" class="cls-2" d="M59.06,307.43v5.33h7.6v2.64h-7.6v9H56.39V304.8H67.27v2.63Z"/><path id="_." data-name="." class="cls-2" d="M164.83,324.37v-3.51h3.51v3.51Z"/><path id="N" class="cls-2" d="M274.59,324.37l-5.8-13.59v13.59h-2.66V304.8h2.94l5.85,13.81V304.8h2.66v19.57Z"/><path id="E-2" data-name="E" class="cls-2" d="M247.79,324.37V304.8h10.87v2.63h-8.21v5.33h7.61v2.64h-7.61v6.34h8.21v2.63Z"/><path id="V" class="cls-2" d="M242.07,304.8l-4.86,19.57h-3.84l-4.91-19.57h2.71l4.07,16.91,4.14-16.91Z"/><path id="I" class="cls-2" d="M222.72,304.8v19.57h-2.67V304.8Z"/><path id="R-2" data-name="R" class="cls-2" d="M210.6,324.37l-3.73-8h-2.58v8h-2.66V304.8h5.9a5.09,5.09,0,0,1,5.46,5.32V311a5.27,5.27,0,0,1-3.29,5.05l3.92,8.29Zm-.27-14.16a2.6,2.6,0,0,0-2.86-2.78h-3.18v6.32h3.24a2.53,2.53,0,0,0,2.8-2.75Z"/><path id="D" class="cls-2" d="M194.7,319c0,1.76-.88,5.38-5.3,5.38h-6V304.8h5.9a5.06,5.06,0,0,1,5.41,5.32ZM192,310.21a2.51,2.51,0,0,0-2.75-2.78h-3.24v14.31h3.3A2.48,2.48,0,0,0,192,319Z"/></g><g id="ADITYA"><path id="A" class="cls-2" d="M51.79,235.12a2.83,2.83,0,0,0-2.46-1.42h0a2.85,2.85,0,0,0-2.46,1.42L22.76,276.8a2.84,2.84,0,1,0,4.92,2.85l21.65-37.43L63,265.79H41.67l-3.29,5.68H66.24L71,279.65a2.84,2.84,0,0,0,2.46,1.42,2.94,2.94,0,0,0,1.42-.38,2.85,2.85,0,0,0,1-3.88Z"/><path id="Y" class="cls-2" d="M214.75,238a2.84,2.84,0,1,1,4.9-2.87l13.27,22.66-3.27,5.66Zm19,28.5h0l-6,10.33a2.84,2.84,0,0,0,1,3.88,2.94,2.94,0,0,0,1.42.38h0a2.83,2.83,0,0,0,2.46-1.42l12.05-20.84,12-20.84a2.85,2.85,0,0,0-1-3.89h0a3.7,3.7,0,0,0-.62-.26l-.2,0a2.52,2.52,0,0,0-.47-.06l-.12,0h-.08a3.19,3.19,0,0,0-.62.08h0a2.67,2.67,0,0,0-.61.24l-.16.1a3.79,3.79,0,0,0-.4.3,1.85,1.85,0,0,0-.14.14,2.84,2.84,0,0,0-.43.54l-12,20.84L235,264.35Z"/><path id="T-2" data-name="T" class="cls-2" d="M201,233.7H162a2.84,2.84,0,1,0,0,5.68h16.66v38.85a2.84,2.84,0,1,0,5.68,0V239.38H201a2.84,2.84,0,1,0,0-5.68Z"/><path id="I-2" data-name="I" class="cls-2" d="M146.78,233.7a2.84,2.84,0,0,0-2.84,2.84v41.69a2.84,2.84,0,0,0,5.68,0V236.54A2.84,2.84,0,0,0,146.78,233.7Z"/><path id="D-2" data-name="D" class="cls-2" d="M106.22,233.7H88.49a2.84,2.84,0,0,0-2.84,2.84v41.69a2.84,2.84,0,0,0,5.68,0V239.38h14.89a18,18,0,0,1,0,36H99.43a2.84,2.84,0,0,0,0,5.68h6.79a23.69,23.69,0,0,0,0-47.37Z"/><path id="A-2" data-name="A" class="cls-2" d="M309,276.81l-24.1-41.69a2.83,2.83,0,0,0-2.46-1.42h0a2.85,2.85,0,0,0-2.46,1.42L255.89,276.8a2.84,2.84,0,1,0,4.92,2.85l21.65-37.43,13.63,23.57H274.8l-3.29,5.68h27.86l4.73,8.18a2.84,2.84,0,0,0,2.46,1.42,2.94,2.94,0,0,0,1.42-.38A2.85,2.85,0,0,0,309,276.81Z"/></g><g id="SYMBOL"><path class="cls-3" d="M255,179.39a6.61,6.61,0,1,0-6.61,6.61A6.61,6.61,0,0,0,255,179.39Z"/><path class="cls-3" d="M166,30a6.61,6.61,0,1,0,6.61,6.61A6.61,6.61,0,0,0,166,30Z"/><path class="cls-3" d="M178.72,14.34h0a25.72,25.72,0,0,0-35.12,9.41L61.09,166.53a25.7,25.7,0,0,0,9.41,35.11h0a25.69,25.69,0,0,0,35.11-9.4L188.12,49.46A25.71,25.71,0,0,0,178.72,14.34ZM83.35,194.81a15.42,15.42,0,1,1,15.42-15.42A15.42,15.42,0,0,1,83.35,194.81ZM166,52.08a15.43,15.43,0,1,1,15.42-15.43A15.42,15.42,0,0,1,166,52.08Z"/><path class="cls-3" d="M83.35,172.78A6.61,6.61,0,1,0,90,179.39,6.61,6.61,0,0,0,83.35,172.78Z"/><path class="cls-3" d="M270.69,166.53,198.87,42.26a33.36,33.36,0,0,1-4,11.09l-7.09,12.27,57,98.78a15.42,15.42,0,1,1-7.62,4.44L182.67,74.42,170.38,95.7l55.78,96.54a25.71,25.71,0,0,0,35.12,9.4h0A25.71,25.71,0,0,0,270.69,166.53Z"/></g></svg>